<svg width="22" height="19" viewBox="0 0 22 19" fill="none" xmlns="http://www.w3.org/2000/svg">
<path d="M20.0001 7H6.82806L10.4141 3.414C10.7784 3.03679 10.98 2.53159 10.9754 2.0072C10.9709 1.4828 10.7605 0.981177 10.3897 0.610361C10.0189 0.239544 9.51726 0.0292067 8.99286 0.0246499C8.46847 0.020093 7.96327 0.221682 7.58606 0.585998L0.586061 7.586C0.211119 7.96105 0.000488281 8.46967 0.000488281 9C0.000488281 9.53033 0.211119 10.0389 0.586061 10.414L7.58606 17.414C7.77056 17.605 7.99124 17.7574 8.23525 17.8622C8.47926 17.967 8.7417 18.0222 9.00726 18.0245C9.27282 18.0268 9.53618 17.9762 9.78197 17.8756C10.0278 17.7751 10.2511 17.6266 10.4389 17.4388C10.6266 17.251 10.7751 17.0277 10.8757 16.7819C10.9763 16.5361 11.0269 16.2728 11.0246 16.0072C11.0223 15.7416 10.9671 15.4792 10.8623 15.2352C10.7574 14.9912 10.6051 14.7705 10.4141 14.586L6.82806 11H20.0001C20.5305 11 21.0392 10.7893 21.4143 10.4142C21.7893 10.0391 22.0001 9.53043 22.0001 9C22.0001 8.46957 21.7893 7.96086 21.4143 7.58578C21.0392 7.21071 20.5305 7 20.0001 7Z" fill="white"/>
</svg>
