<svg width="32" height="33" viewBox="0 0 32 33" fill="none" xmlns="http://www.w3.org/2000/svg">
<path d="M16 0.666626C7.15681 0.666626 0 7.82263 0 16.6666C0 25.5097 7.156 32.6666 16 32.6666C24.8432 32.6666 32 25.5106 32 16.6666C32 7.82344 24.844 0.666626 16 0.666626ZM15.5266 24.1553C14.6209 24.1553 13.9259 23.3971 13.9259 22.5336C13.9259 21.649 14.642 20.9119 15.5266 20.9119C16.4112 20.9119 17.1482 21.6491 17.1482 22.5336C17.1482 23.3971 16.4321 24.1553 15.5266 24.1553ZM17.9274 15.9626C16.7691 16.8682 16.748 17.5001 16.748 18.5952C16.748 18.9954 16.5374 19.4588 15.5054 19.4588C14.6419 19.4588 14.3471 19.1428 14.3471 18.0477C14.3471 16.2364 15.1474 15.3729 15.7582 14.8464C16.4532 14.2567 17.6326 13.6039 17.6326 12.4666C17.6326 11.4978 16.7902 11.0344 15.7371 11.0344C13.5889 11.0344 14.0523 12.6562 12.9149 12.6562C12.3463 12.6562 11.6513 12.277 11.6513 11.4557C11.6513 10.3184 12.9571 8.6335 15.8003 8.6335C18.4961 8.6335 20.2862 10.1289 20.2862 12.1086C20.2862 14.0883 18.4961 15.5204 17.9274 15.9626Z" fill="#8B8785"/>
</svg>
