<svg width="128" height="128" viewBox="0 0 128 128" fill="none" xmlns="http://www.w3.org/2000/svg">
<path d="M88 60C82.4621 60 77.0486 61.6422 72.444 64.7189C67.8395 67.7955 64.2506 72.1685 62.1314 77.2849C60.0121 82.4012 59.4576 88.0311 60.538 93.4625C61.6184 98.894 64.2851 103.883 68.201 107.799C72.1169 111.715 77.106 114.382 82.5375 115.462C87.9689 116.542 93.5988 115.988 98.7151 113.869C103.831 111.749 108.204 108.161 111.281 103.556C114.358 98.9514 116 93.5379 116 88C115.986 80.5783 113.031 73.4645 107.783 68.2166C102.535 62.9686 95.4217 60.0141 88 60ZM98.6667 85.4933L88 96.16C87.25 96.9091 86.2333 97.3298 85.1733 97.3298C84.1133 97.3298 83.0967 96.9091 82.3467 96.16L77.0133 90.8267C76.6396 90.4475 76.3453 89.9976 76.1478 89.5032C75.9502 89.0088 75.8533 88.48 75.8627 87.9477C75.8722 87.4154 75.9878 86.8903 76.2028 86.4033C76.4178 85.9163 76.7279 85.4771 77.1148 85.1114C77.5018 84.7457 77.9578 84.461 78.4562 84.2739C78.9547 84.0868 79.4854 84.0011 80.0174 84.0217C80.5494 84.0424 81.0719 84.1691 81.5543 84.3943C82.0367 84.6195 82.4693 84.9388 82.8267 85.3333L85.3333 87.84L93.1733 80C93.4728 79.4732 93.8881 79.0214 94.3878 78.6786C94.8874 78.3358 95.4585 78.111 96.0577 78.0212C96.657 77.9314 97.2688 77.9789 97.847 78.1602C98.4252 78.3414 98.9547 78.6517 99.3955 79.0675C99.8362 79.4833 100.177 79.9938 100.391 80.5605C100.606 81.1272 100.689 81.7352 100.634 82.3387C100.579 82.9421 100.388 83.5253 100.075 84.0441C99.762 84.5628 99.3351 85.0037 98.8267 85.3333L98.6667 85.4933ZM60.32 49.2267L17.6533 12.5333C18.6496 12.1925 19.6938 12.0125 20.7467 12H101.653C102.706 12.0125 103.75 12.1925 104.747 12.5333L62.08 49.2267C61.8453 49.4366 61.5415 49.5526 61.2267 49.5526C60.9118 49.5526 60.608 49.4366 60.3733 49.2267H60.32ZM52 88C51.9734 88.444 51.9734 88.8893 52 89.3333H21.0133C18.6742 89.3763 16.4132 88.4916 14.7243 86.8727C13.0354 85.2538 12.056 83.0322 12 80.6933V20.64C12.0159 19.8618 12.1415 19.0897 12.3733 18.3467L55.04 55.2533C55.4031 55.5706 55.8181 55.8231 56.2667 56C57.6985 56.9722 59.3893 57.4919 61.12 57.4919C62.8507 57.4919 64.5415 56.9722 65.9733 56C66.4219 55.8231 66.8369 55.5706 67.2 55.2533L109.867 18.3467C110.098 19.0897 110.224 19.8618 110.24 20.64V60.0533C104.958 55.7726 98.572 53.0751 91.8207 52.273C85.0694 51.4709 78.229 52.5969 72.0911 55.5208C65.9532 58.4446 60.7687 63.0468 57.1377 68.7947C53.5066 74.5426 51.5774 81.2013 51.5733 88H52Z" fill="#88D05E"/>
</svg>
